<svg xmlns="http://www.w3.org/2000/svg" version="1.1" xmlns:xlink="http://www.w3.org/1999/xlink" xmlns:svgjs="http://svgjs.com/svgjs" width="3840" height="2160" preserveAspectRatio="none" viewBox="0 0 3840 2160"><g mask="url(&quot;#SvgjsMask1127&quot;)" fill="none"><rect width="3840" height="2160" x="0" y="0" fill="rgba(83, 217, 155, 1)"></rect><path d="M0,1525.885C283.806,1497.621,514.655,1322.699,774.543,1205.213C1086.172,1064.337,1545.516,1081.643,1679.108,766.823C1813.635,449.798,1479.527,129.438,1369.524,-196.908C1282.303,-455.666,1250.272,-725.056,1099.493,-952.716C932.734,-1204.505,749.426,-1480.438,460.728,-1569.094C171.258,-1657.987,-134.83,-1529.571,-416.433,-1418.24C-677.93,-1314.858,-877.87,-1125.929,-1099.136,-952.407C-1376.747,-734.698,-1796.201,-612.984,-1880.186,-270.33C-1963.467,69.45,-1682.596,386.541,-1500.535,685.271C-1336.971,953.652,-1154.669,1216.427,-880.469,1370.036C-615.065,1518.718,-302.716,1556.033,0,1525.885" fill="#29bb77"></path><path d="M3840 3331.7929999999997C4066.263 3346.6949999999997 4309.162 3306.768 4484.867 3163.433 4654.889 3024.734 4672.568 2781.415 4760.891 2580.557 4847.696 2383.151 5020.51 2207.916 4999.407999999999 1993.302 4978.127 1776.867 4789.632 1624.8490000000002 4650.485 1457.711 4508.455 1287.1100000000001 4386.939 1083.545 4178.482 1007.2360000000001 3965.071 929.113 3727.359 970.098 3511.3469999999998 1040.711 3299.767 1109.876 3094.1 1220.757 2966.768 1403.3400000000001 2844.858 1578.1480000000001 2865.804 1804.652 2831.849 2015.05 2797.2039999999997 2229.721 2686.52 2448.112 2765.458 2650.727 2845.339 2855.764 3061.645 2964.138 3247.505 3081.94 3432.286 3199.058 3621.702 3317.416 3840 3331.7929999999997" fill="#8ee6bd"></path></g><defs><mask id="SvgjsMask1127"><rect width="3840" height="2160" fill="#ffffff"></rect></mask></defs></svg>